<?xml version="1.0" encoding="UTF-8"?>
<!-- Created with Inkscape (http://www.inkscape.org/) -->
<svg width="800" height="800" version="1.1" viewBox="0 0 211.66666 211.66667" xmlns="http://www.w3.org/2000/svg" xmlns:cc="http://creativecommons.org/ns#" xmlns:dc="http://purl.org/dc/elements/1.1/" xmlns:rdf="http://www.w3.org/1999/02/22-rdf-syntax-ns#" xmlns:xlink="http://www.w3.org/1999/xlink">
 <defs>
  <filter id="filter4933-6" color-interpolation-filters="sRGB">
   <feFlood flood-color="rgb(0,0,0)" flood-opacity=".49804" result="flood"/>
   <feComposite in="flood" in2="SourceGraphic" operator="in" result="composite1"/>
   <feGaussianBlur in="composite1" result="blur" stdDeviation="5.6"/>
   <feOffset dx="0" dy="0" result="offset"/>
   <feComposite in="SourceGraphic" in2="offset" result="composite2"/>
  </filter>
  <radialGradient id="radialGradient4590" cx="261.92" cy="-119.94" r="107.98" gradientTransform="translate(486.77 295.66)" gradientUnits="userSpaceOnUse">
   <stop stop-color="#2a7fff" offset="0"/>
   <stop stop-color="#2a68ff" offset="1"/>
  </radialGradient>
 </defs>
 <metadata>
  <rdf:RDF>
   <cc:Work rdf:about="">
    <dc:format>image/svg+xml</dc:format>
    <dc:type rdf:resource="http://purl.org/dc/dcmitype/StillImage"/>
    <dc:title/>
   </cc:Work>
  </rdf:RDF>
 </metadata>
 <g transform="translate(0 -85.333)">
  <g transform="matrix(.98015 0 0 .98015 -246.25 17.422)">
   <g transform="translate(-389.49 1.5425)">
    <rect x="640.72" y="67.744" width="215.95" height="215.95" ry="107.98" fill="url(#radialGradient4590)" fill-rule="evenodd"/>
    <path d="m704.31 233.37h74.429c0.7826-0.34969 1.5546-0.71216 2.3132-1.0915 9.8307-4.8575 17.29-11.855 22.379-20.992 5.2045-9.2524 7.8068-20.239 7.8068-32.962 0-12.606-2.6023-23.478-7.8068-32.615s-12.722-16.134-22.553-20.991c-9.715-4.9732-21.338-7.4597-34.87-7.4597h-35.043c-4.7418 0-8.385 1.2723-10.929 3.8167-2.5444 2.5444-3.8163 6.1875-3.8167 10.929l-8e-3 93.266c0 5.3995 2.7 8.0983 8.0983 8.0983zm23.831-90.435h15.613c11.912 0 20.818 2.8912 26.716 8.6739 6.0141 5.7828 9.021 14.688 9.021 26.716 0 12.028-3.007 20.991-9.021 26.89-5.8984 5.7828-14.804 8.6743-26.716 8.6743h-15.613z" fill="#fff" filter="url(#filter4933-6)"/>
   </g>
  </g>
 </g>
</svg>
