<?xml version="1.0" encoding="UTF-8" standalone="no"?>
<!-- Created with Inkscape (http://www.inkscape.org/) -->

<svg
   xmlns:dc="http://purl.org/dc/elements/1.1/"
   xmlns:cc="http://creativecommons.org/ns#"
   xmlns:rdf="http://www.w3.org/1999/02/22-rdf-syntax-ns#"
   xmlns:svg="http://www.w3.org/2000/svg"
   xmlns="http://www.w3.org/2000/svg"
   xmlns:xlink="http://www.w3.org/1999/xlink"
   xmlns:sodipodi="http://sodipodi.sourceforge.net/DTD/sodipodi-0.dtd"
   xmlns:inkscape="http://www.inkscape.org/namespaces/inkscape"
   width="800"
   height="800"
   viewBox="0 0 211.66666 211.66667"
   version="1.1"
   id="svg8"
   inkscape:version="0.92.1 r15371"
   sodipodi:docname="source.svg">
  <defs
     id="defs2">
    <linearGradient
       id="linearGradient4611"
       inkscape:collect="always">
      <stop
         id="stop4607"
         offset="0"
         style="stop-color:#2a55ff;stop-opacity:1" />
      <stop
         style="stop-color:#2aa3ff;stop-opacity:1"
         offset="0.45424181"
         id="stop4615" />
      <stop
         id="stop4609"
         offset="1"
         style="stop-color:#2a55ff;stop-opacity:1" />
    </linearGradient>
    <linearGradient
       inkscape:collect="always"
       id="linearGradient4542">
      <stop
         style="stop-color:#2a7fff;stop-opacity:1"
         offset="0"
         id="stop4538" />
      <stop
         style="stop-color:#2a68ff;stop-opacity:1"
         offset="1"
         id="stop4540" />
    </linearGradient>
    <linearGradient
       inkscape:collect="always"
       id="linearGradient4502">
      <stop
         style="stop-color:#0044aa;stop-opacity:1;"
         offset="0"
         id="stop4498" />
      <stop
         style="stop-color:#3771c8;stop-opacity:1"
         offset="1"
         id="stop4500" />
    </linearGradient>
    <linearGradient
       inkscape:collect="always"
       xlink:href="#linearGradient4502"
       id="linearGradient4504"
       x1="-598.57141"
       y1="274.28571"
       x2="-42.857143"
       y2="588.57141"
       gradientUnits="userSpaceOnUse"
       gradientTransform="matrix(0.26458333,0,0,0.26458333,-454.44123,88.735102)" />
    <radialGradient
       inkscape:collect="always"
       xlink:href="#linearGradient4542"
       id="radialGradient4544"
       cx="261.92412"
       cy="-119.94049"
       fx="261.92412"
       fy="-119.94049"
       r="107.97688"
       gradientUnits="userSpaceOnUse"
       gradientTransform="translate(0,-167.63145)" />
    <radialGradient
       inkscape:collect="always"
       xlink:href="#linearGradient4542"
       id="radialGradient4789"
       gradientUnits="userSpaceOnUse"
       cx="261.92412"
       cy="-119.94049"
       fx="261.92412"
       fy="-119.94049"
       r="107.97688"
       gradientTransform="translate(-238.40441,-167.63145)" />
    <radialGradient
       inkscape:collect="always"
       xlink:href="#linearGradient4542"
       id="radialGradient4795"
       gradientUnits="userSpaceOnUse"
       gradientTransform="translate(-477.8779,-167.63145)"
       cx="261.92412"
       cy="-119.94049"
       fx="261.92412"
       fy="-119.94049"
       r="107.97688" />
    <radialGradient
       inkscape:collect="always"
       xlink:href="#linearGradient4542"
       id="radialGradient4801"
       gradientUnits="userSpaceOnUse"
       gradientTransform="translate(-716.28231,-167.63145)"
       cx="261.92412"
       cy="-119.94049"
       fx="261.92412"
       fy="-119.94049"
       r="107.97688" />
    <radialGradient
       inkscape:collect="always"
       xlink:href="#linearGradient4542"
       id="radialGradient4807"
       gradientUnits="userSpaceOnUse"
       gradientTransform="translate(241.61167,-167.63145)"
       cx="261.92412"
       cy="-119.94049"
       fx="261.92412"
       fy="-119.94049"
       r="107.97688" />
    <radialGradient
       inkscape:collect="always"
       xlink:href="#linearGradient4542"
       id="radialGradient4813"
       gradientUnits="userSpaceOnUse"
       gradientTransform="translate(484.2924,-167.63145)"
       cx="261.92412"
       cy="-119.94049"
       fx="261.92412"
       fy="-119.94049"
       r="107.97688" />
    <filter
       style="color-interpolation-filters:sRGB;"
       inkscape:label="Drop Shadow"
       id="filter4861">
      <feFlood
         flood-opacity="0.498039"
         flood-color="rgb(0,0,0)"
         result="flood"
         id="feFlood4851" />
      <feComposite
         in="flood"
         in2="SourceGraphic"
         operator="in"
         result="composite1"
         id="feComposite4853" />
      <feGaussianBlur
         in="composite1"
         stdDeviation="1.4"
         result="blur"
         id="feGaussianBlur4855" />
      <feOffset
         dx="0"
         dy="0"
         result="offset"
         id="feOffset4857" />
      <feComposite
         in="SourceGraphic"
         in2="offset"
         operator="over"
         result="composite2"
         id="feComposite4859" />
    </filter>
    <filter
       style="color-interpolation-filters:sRGB;"
       inkscape:label="Drop Shadow"
       id="filter4909">
      <feFlood
         flood-opacity="0.498039"
         flood-color="rgb(0,0,0)"
         result="flood"
         id="feFlood4899" />
      <feComposite
         in="flood"
         in2="SourceGraphic"
         operator="in"
         result="composite1"
         id="feComposite4901" />
      <feGaussianBlur
         in="composite1"
         stdDeviation="2.6"
         result="blur"
         id="feGaussianBlur4903" />
      <feOffset
         dx="0"
         dy="0"
         result="offset"
         id="feOffset4905" />
      <feComposite
         in="SourceGraphic"
         in2="offset"
         operator="over"
         result="composite2"
         id="feComposite4907" />
    </filter>
    <filter
       style="color-interpolation-filters:sRGB;"
       inkscape:label="Drop Shadow"
       id="filter4921">
      <feFlood
         flood-opacity="0.498039"
         flood-color="rgb(0,0,0)"
         result="flood"
         id="feFlood4911" />
      <feComposite
         in="flood"
         in2="SourceGraphic"
         operator="in"
         result="composite1"
         id="feComposite4913" />
      <feGaussianBlur
         in="composite1"
         stdDeviation="4"
         result="blur"
         id="feGaussianBlur4915" />
      <feOffset
         dx="0"
         dy="0"
         result="offset"
         id="feOffset4917" />
      <feComposite
         in="SourceGraphic"
         in2="offset"
         operator="over"
         result="composite2"
         id="feComposite4919" />
    </filter>
    <filter
       style="color-interpolation-filters:sRGB;"
       inkscape:label="Drop Shadow"
       id="filter4933">
      <feFlood
         flood-opacity="0.498039"
         flood-color="rgb(0,0,0)"
         result="flood"
         id="feFlood4923" />
      <feComposite
         in="flood"
         in2="SourceGraphic"
         operator="in"
         result="composite1"
         id="feComposite4925" />
      <feGaussianBlur
         in="composite1"
         stdDeviation="5.6"
         result="blur"
         id="feGaussianBlur4927" />
      <feOffset
         dx="0"
         dy="0"
         result="offset"
         id="feOffset4929" />
      <feComposite
         in="SourceGraphic"
         in2="offset"
         operator="over"
         result="composite2"
         id="feComposite4931" />
    </filter>
    <filter
       style="color-interpolation-filters:sRGB;"
       inkscape:label="Drop Shadow"
       id="filter4945">
      <feFlood
         flood-opacity="0.498039"
         flood-color="rgb(0,0,0)"
         result="flood"
         id="feFlood4935" />
      <feComposite
         in="flood"
         in2="SourceGraphic"
         operator="in"
         result="composite1"
         id="feComposite4937" />
      <feGaussianBlur
         in="composite1"
         stdDeviation="7.4"
         result="blur"
         id="feGaussianBlur4939" />
      <feOffset
         dx="0"
         dy="0"
         result="offset"
         id="feOffset4941" />
      <feComposite
         in="SourceGraphic"
         in2="offset"
         operator="over"
         result="composite2"
         id="feComposite4943" />
    </filter>
    <filter
       style="color-interpolation-filters:sRGB;"
       inkscape:label="Drop Shadow"
       id="filter4957">
      <feFlood
         flood-opacity="0.498039"
         flood-color="rgb(0,0,0)"
         result="flood"
         id="feFlood4947" />
      <feComposite
         in="flood"
         in2="SourceGraphic"
         operator="in"
         result="composite1"
         id="feComposite4949" />
      <feGaussianBlur
         in="composite1"
         stdDeviation="10"
         result="blur"
         id="feGaussianBlur4951" />
      <feOffset
         dx="0"
         dy="0"
         result="offset"
         id="feOffset4953" />
      <feComposite
         in="SourceGraphic"
         in2="offset"
         operator="over"
         result="composite2"
         id="feComposite4955" />
    </filter>
    <radialGradient
       inkscape:collect="always"
       xlink:href="#linearGradient4542"
       id="radialGradient4959"
       gradientUnits="userSpaceOnUse"
       cx="261.92412"
       cy="-119.94049"
       fx="261.92412"
       fy="-119.94049"
       r="107.97688"
       gradientTransform="translate(97.286107,297.20371)" />
    <filter
       style="color-interpolation-filters:sRGB"
       inkscape:label="Drop Shadow"
       id="filter4933-6">
      <feFlood
         flood-opacity="0.498039"
         flood-color="rgb(0,0,0)"
         result="flood"
         id="feFlood4923-0" />
      <feComposite
         in="flood"
         in2="SourceGraphic"
         operator="in"
         result="composite1"
         id="feComposite4925-1" />
      <feGaussianBlur
         in="composite1"
         stdDeviation="5.6"
         result="blur"
         id="feGaussianBlur4927-8" />
      <feOffset
         dx="0"
         dy="0"
         result="offset"
         id="feOffset4929-2" />
      <feComposite
         in="SourceGraphic"
         in2="offset"
         operator="over"
         result="composite2"
         id="feComposite4931-4" />
    </filter>
    <radialGradient
       inkscape:collect="always"
       xlink:href="#linearGradient4542"
       id="radialGradient4959-0"
       gradientUnits="userSpaceOnUse"
       cx="261.92413"
       cy="-119.94049"
       fx="261.92413"
       fy="-119.94049"
       r="107.97688"
       gradientTransform="translate(486.77416,295.66119)" />
    <filter
       style="color-interpolation-filters:sRGB"
       inkscape:label="Drop Shadow"
       id="filter4933-4">
      <feFlood
         flood-opacity="0.498039"
         flood-color="rgb(0,0,0)"
         result="flood"
         id="feFlood4923-2" />
      <feComposite
         in="flood"
         in2="SourceGraphic"
         operator="in"
         result="composite1"
         id="feComposite4925-6" />
      <feGaussianBlur
         in="composite1"
         stdDeviation="5.6"
         result="blur"
         id="feGaussianBlur4927-0" />
      <feOffset
         dx="0"
         dy="0"
         result="offset"
         id="feOffset4929-0" />
      <feComposite
         in="SourceGraphic"
         in2="offset"
         operator="over"
         result="composite2"
         id="feComposite4931-5" />
    </filter>
    <radialGradient
       inkscape:collect="always"
       xlink:href="#linearGradient4542"
       id="radialGradient4959-8"
       gradientUnits="userSpaceOnUse"
       cx="261.92413"
       cy="-119.94049"
       fx="261.92413"
       fy="-119.94049"
       r="107.97688"
       gradientTransform="translate(715.40901,295.23489)" />
    <filter
       style="color-interpolation-filters:sRGB;"
       inkscape:label="Drop Shadow"
       id="filter5227">
      <feFlood
         flood-opacity="0.498039"
         flood-color="rgb(0,0,0)"
         result="flood"
         id="feFlood5217" />
      <feComposite
         in="flood"
         in2="SourceGraphic"
         operator="in"
         result="composite1"
         id="feComposite5219" />
      <feGaussianBlur
         in="composite1"
         stdDeviation="5.6"
         result="blur"
         id="feGaussianBlur5221" />
      <feOffset
         dx="0"
         dy="0"
         result="offset"
         id="feOffset5223" />
      <feComposite
         in="SourceGraphic"
         in2="offset"
         operator="over"
         result="composite2"
         id="feComposite5225" />
    </filter>
    <radialGradient
       inkscape:collect="always"
       xlink:href="#linearGradient4542"
       id="radialGradient4588"
       gradientUnits="userSpaceOnUse"
       gradientTransform="translate(486.77416,295.66119)"
       cx="261.92413"
       cy="-119.94049"
       fx="261.92413"
       fy="-119.94049"
       r="107.97688" />
    <linearGradient
       inkscape:collect="always"
       xlink:href="#linearGradient4611"
       id="linearGradient4613"
       x1="0"
       y1="113.11456"
       x2="198.70209"
       y2="229.79581"
       gradientUnits="userSpaceOnUse" />
  </defs>
  <sodipodi:namedview
     id="base"
     pagecolor="#ffffff"
     bordercolor="#666666"
     borderopacity="1.0"
     inkscape:pageopacity="0.0"
     inkscape:pageshadow="2"
     inkscape:zoom="0.125"
     inkscape:cx="-1689.4923"
     inkscape:cy="607.45987"
     inkscape:document-units="px"
     inkscape:current-layer="layer1"
     showgrid="false"
     inkscape:pagecheckerboard="true"
     units="px"
     inkscape:window-width="1920"
     inkscape:window-height="1017"
     inkscape:window-x="-8"
     inkscape:window-y="-8"
     inkscape:window-maximized="1"
     inkscape:measure-start="0,0"
     inkscape:measure-end="0,0"
     inkscape:snap-page="true"
     inkscape:object-paths="false"
     inkscape:snap-smooth-nodes="false"
     inkscape:snap-intersection-paths="false"
     inkscape:object-nodes="true"
     inkscape:snap-bbox="false"
     inkscape:snap-bbox-edge-midpoints="false"
     inkscape:bbox-nodes="false"
     inkscape:bbox-paths="false"
     inkscape:snap-midpoints="false"
     inkscape:snap-object-midpoints="true"
     inkscape:snap-center="true"
     inkscape:snap-bbox-midpoints="false"
     inkscape:snap-text-baseline="false" />
  <metadata
     id="metadata5">
    <rdf:RDF>
      <cc:Work
         rdf:about="">
        <dc:format>image/svg+xml</dc:format>
        <dc:type
           rdf:resource="http://purl.org/dc/dcmitype/StillImage" />
        <dc:title />
      </cc:Work>
    </rdf:RDF>
  </metadata>
  <g
     inkscape:label="Layer 1"
     inkscape:groupmode="layer"
     id="layer1"
     transform="translate(0,-85.333316)">
    <rect
       style="fill:#1a1a1a;fill-opacity:1;fill-rule:evenodd;stroke:none;stroke-width:0.52916664;stroke-linecap:round;stroke-linejoin:round;stroke-miterlimit:4;stroke-dasharray:none;stroke-opacity:1"
       id="rect4484"
       width="198.05954"
       height="111.12498"
       x="-203.80482"
       y="616.46954"
       ry="15.425208" />
    <rect
       style="fill:#93a7ac;fill-opacity:1;fill-rule:evenodd;stroke:none;stroke-width:0.52916664;stroke-linecap:round;stroke-linejoin:round;stroke-miterlimit:4;stroke-dasharray:none;stroke-opacity:1"
       id="rect4482"
       width="137.96132"
       height="88.446426"
       x="-173.75571"
       y="627.80878" />
    <rect
       style="fill:#333333;fill-opacity:1;fill-rule:evenodd;stroke:none;stroke-width:0.52916664;stroke-linecap:round;stroke-linejoin:round;stroke-miterlimit:4;stroke-dasharray:none;stroke-opacity:1"
       id="rect4486"
       width="35.907738"
       height="59.720234"
       x="-122.72892"
       y="721.92487"
       ry="15.425208" />
    <rect
       style="fill:#1a1a1a;fill-opacity:1;fill-rule:evenodd;stroke:none;stroke-width:0.52916664;stroke-linecap:round;stroke-linejoin:round;stroke-miterlimit:4;stroke-dasharray:none;stroke-opacity:1"
       id="rect4486-3"
       width="25.324396"
       height="113.39285"
       x="761.80133"
       y="48.078632"
       ry="15.425208"
       transform="rotate(90)" />
    <path
       style="font-style:normal;font-variant:normal;font-weight:900;font-stretch:normal;font-size:192px;line-height:1.25;font-family:Nunito;-inkscape-font-specification:'Nunito Heavy';letter-spacing:0px;word-spacing:0px;fill:url(#linearGradient4504);fill-opacity:1;stroke:none;stroke-width:1.23633063"
       d="m -600.20834,93.144726 c -6.48825,0 -11.47313,1.740912 -14.95464,5.22242 -3.4815,3.481504 -5.22242,8.466374 -5.22242,14.954644 v 126.99586 c 0,4.68386 0.90798,8.58365 2.72232,11.70058 h 110.18914 c 1.07081,-0.47848 2.12717,-0.97445 3.16518,-1.49345 13.45128,-6.64651 23.65837,-16.22101 30.62138,-28.72279 7.12127,-12.66002 10.68204,-27.69359 10.68204,-45.10113 0,-17.24928 -3.56077,-32.12496 -10.68204,-44.62673 -7.12126,-12.50177 -17.4073,-22.07576 -30.85858,-28.72228 -13.29302,-6.804762 -29.19704,-10.207124 -47.71233,-10.207124 z m 23.50038,35.131704 h 21.36355 c 16.29978,0 28.48515,3.95601 36.55591,11.86853 8.22902,7.91251 12.34343,20.09787 12.34343,36.5559 0,16.45804 -4.11441,28.72234 -12.34343,36.79311 -8.07076,7.91252 -20.25613,11.86904 -36.55591,11.86904 h -21.36355 z"
       id="path4495"
       inkscape:connector-curvature="0" />
    <rect
       style="fill:url(#radialGradient4544);fill-opacity:1;fill-rule:evenodd;stroke:none;stroke-width:0.52916664;stroke-linecap:round;stroke-linejoin:round;stroke-miterlimit:4;stroke-dasharray:none;stroke-opacity:1"
       id="rect4536"
       width="215.95377"
       height="215.95377"
       x="153.94724"
       y="-395.54883"
       ry="107.97688" />
    <g
       transform="matrix(0.98014806,0,0,0.98014806,1170.2985,-445.06074)"
       id="g4588">
      <rect
         style="fill:url(#radialGradient4959);fill-opacity:1;fill-rule:evenodd;stroke:none;stroke-width:0.52916664;stroke-linecap:round;stroke-linejoin:round;stroke-miterlimit:4;stroke-dasharray:none;stroke-opacity:1"
         id="rect4773"
         width="215.95377"
         height="215.95377"
         x="251.23334"
         y="69.286339"
         ry="107.97688" />
      <path
         style="font-style:normal;font-variant:normal;font-weight:900;font-stretch:normal;font-size:192px;line-height:1.25;font-family:Nunito;-inkscape-font-specification:'Nunito Heavy';letter-spacing:0px;word-spacing:0px;fill:#ffffff;fill-opacity:1;stroke:none;stroke-width:3.34721351;filter:url(#filter5227)"
         d="m 260.2207,183.43359 c -17.56613,0 -31.06057,4.71292 -40.48632,14.13868 -9.42574,9.42572 -14.13926,22.92207 -14.14063,40.48828 l -0.0273,349.49023 v 0.004 c 4.6e-4,0.61322 0.0226,1.22623 0.0664,1.83789 1.03603,13.74895 12.5055,23.84696 25.94531,24.16992 h 279.70899 c 2.89914,-1.29543 5.76001,-2.63785 8.57031,-4.04297 36.41765,-17.99463 64.05083,-43.91661 82.90235,-77.76367 19.27994,-34.27545 28.91992,-74.97668 28.91992,-122.10547 0,-46.70033 -9.63998,-86.97329 -28.91992,-120.82031 C 583.47986,254.98315 555.6326,229.06113 519.21488,211.0665 483.22566,192.64344 440.16698,183.43368 390.0391,183.43368 Z m 63.625,95.11329 h 57.83985 c 44.12963,0 77.1201,10.71063 98.9707,32.13281 22.27907,21.42218 33.41797,54.41261 33.41797,98.9707 0,44.55813 -11.1389,77.76264 -33.41797,99.61328 -21.8506,21.42218 -54.84107,32.13477 -98.9707,32.13477 H 323.8457 Z"
         id="path4621"
         transform="matrix(0.26994221,0,0,0.26994221,251.23334,69.286339)"
         inkscape:connector-curvature="0"
         sodipodi:nodetypes="scscccccccsscsscscscscc" />
    </g>
    <g
       transform="matrix(0.98014806,0,0,0.98014806,332.23229,-448.05416)"
       id="g4671">
      <rect
         style="fill:url(#radialGradient4959-0);fill-opacity:1;fill-rule:evenodd;stroke:none;stroke-width:0.52916664;stroke-linecap:round;stroke-linejoin:round;stroke-miterlimit:4;stroke-dasharray:none;stroke-opacity:1"
         id="rect4773-3"
         width="215.95377"
         height="215.95377"
         x="640.72137"
         y="67.743813"
         ry="107.97688" />
      <path
         inkscape:connector-curvature="0"
         style="font-style:normal;font-variant:normal;font-weight:900;font-stretch:normal;font-size:192px;line-height:1.25;font-family:Nunito;-inkscape-font-specification:'Nunito Heavy';letter-spacing:0px;word-spacing:0px;fill:#ffffff;fill-opacity:1;stroke:none;stroke-width:0.9035542;filter:url(#filter4933-6)"
         d="m 710.96612,117.26008 c -4.74184,0 -8.38497,1.27232 -10.92938,3.81673 -2.5444,2.5444 -3.81636,6.18752 -3.81673,10.92938 l -0.008,101.36427 h 82.52735 c 0.7826,-0.34969 1.55462,-0.71216 2.31324,-1.09146 9.83066,-4.85751 17.29037,-11.85489 22.37919,-20.99164 5.20447,-9.25239 7.80681,-20.23945 7.80681,-32.9615 0,-12.60639 -2.60234,-23.47805 -7.80681,-32.61479 -5.20447,-9.13674 -12.72187,-16.13375 -22.55255,-20.99126 -9.71501,-4.97316 -21.33823,-7.45973 -34.86986,-7.45973 z m 17.17491,25.67549 h 15.61324 c 11.91245,0 20.81795,2.89119 26.71635,8.67394 6.01406,5.78275 9.02102,14.68824 9.02102,26.71635 0,12.02812 -3.00696,20.9913 -9.02102,26.88971 -5.8984,5.78275 -14.8039,8.67431 -26.71635,8.67431 h -15.61324 z"
         id="path4532-8"
         sodipodi:nodetypes="sssccccsscsscscscscc" />
    </g>
    <g
       transform="matrix(0.98014806,0,0,0.98014806,335.32481,-448.0337)"
       id="g4675">
      <rect
         style="fill:url(#radialGradient4959-8);fill-opacity:1;fill-rule:evenodd;stroke:none;stroke-width:0.52916664;stroke-linecap:round;stroke-linejoin:round;stroke-miterlimit:4;stroke-dasharray:none;stroke-opacity:1"
         id="rect4773-4"
         width="215.95377"
         height="215.95377"
         x="869.35626"
         y="67.317513"
         ry="107.97688" />
      <path
         inkscape:connector-curvature="0"
         style="font-style:normal;font-variant:normal;font-weight:900;font-stretch:normal;font-size:192px;line-height:1.25;font-family:Nunito;-inkscape-font-specification:'Nunito Heavy';letter-spacing:0px;word-spacing:0px;fill:#ffffff;fill-opacity:1;stroke:none;stroke-width:3.34721351;filter:url(#filter4933-4)"
         d="m 260.22072,183.43359 c -17.56613,0 -31.06057,4.71292 -40.48632,14.13868 -9.42574,9.42572 -14.13926,22.92207 -14.14063,40.48828 l -0.0273,349.49023 v 0.004 a 26.011429,26.011429 0 0 0 0.0664,1.83789 26.011429,26.011429 0 0 0 0.3125,2.58008 26.011429,26.011429 0 0 0 0.57031,2.53711 26.011429,26.011429 0 0 0 0.81836,2.46679 26.011429,26.011429 0 0 0 1.0625,2.375 26.011429,26.011429 0 0 0 1.29297,2.25391 26.011429,26.011429 0 0 0 1.51367,2.11523 26.011429,26.011429 0 0 0 1.71485,1.95313 26.011429,26.011429 0 0 0 1.90234,1.77344 26.011429,26.011429 0 0 0 2.07031,1.57226 26.011429,26.011429 0 0 0 2.2168,1.35938 26.011429,26.011429 0 0 0 2.3418,1.13086 26.011429,26.011429 0 0 0 2.4414,0.89257 26.011429,26.011429 0 0 0 2.51954,0.64258 26.011429,26.011429 0 0 0 2.57226,0.38867 26.011429,26.011429 0 0 0 2.5957,0.12891 h 279.70899 c 2.89914,-1.29543 5.76001,-2.63785 8.57031,-4.04297 36.41765,-17.99463 64.05083,-43.91661 82.90235,-77.76367 19.27994,-34.27545 28.91992,-74.97668 28.91992,-122.10547 0,-46.70033 -9.63998,-86.97329 -28.91992,-120.82031 C 583.47988,254.98315 555.63262,229.06113 519.2149,211.0665 483.22568,192.64344 440.167,183.43368 390.03912,183.43368 Z m 63.625,95.11329 h 57.83985 c 44.12963,0 77.1201,10.71063 98.9707,32.13281 22.27907,21.42218 33.41797,54.41261 33.41797,98.9707 0,44.55813 -11.1389,77.76264 -33.41797,99.61328 -21.8506,21.42218 -54.84107,32.13477 -98.9707,32.13477 h -57.83985 z"
         id="path4621-8"
         transform="matrix(0.26994221,0,0,0.26994221,869.35624,67.317516)" />
    </g>
    <g
       id="g5083"
       transform="matrix(0.98014806,0,0,0.98014806,332.23229,-448.05416)">
      <rect
         ry="107.97688"
         y="67.743813"
         x="640.72137"
         height="215.95377"
         width="215.95377"
         id="rect5079"
         style="fill:url(#radialGradient4588);fill-opacity:1;fill-rule:evenodd;stroke:none;stroke-width:0.52916664;stroke-linecap:round;stroke-linejoin:round;stroke-miterlimit:4;stroke-dasharray:none;stroke-opacity:1" />
      <path
         sodipodi:nodetypes="sssccccsscsscscscscc"
         id="path5081"
         d="m 710.96612,117.26008 c -4.74184,0 -8.38497,1.27232 -10.92938,3.81673 -2.5444,2.5444 -3.81636,6.18752 -3.81673,10.92938 l -0.008,101.36427 h 82.52735 c 0.7826,-0.34969 1.55462,-0.71216 2.31324,-1.09146 9.83066,-4.85751 17.29037,-11.85489 22.37919,-20.99164 5.20447,-9.25239 7.80681,-20.23945 7.80681,-32.9615 0,-12.60639 -2.60234,-23.47805 -7.80681,-32.61479 -5.20447,-9.13674 -12.72187,-16.13375 -22.55255,-20.99126 -9.71501,-4.97316 -21.33823,-7.45973 -34.86986,-7.45973 z m 17.17491,25.67549 h 15.61324 c 11.91245,0 20.81795,2.89119 26.71635,8.67394 6.01406,5.78275 9.02102,14.68824 9.02102,26.71635 0,12.02812 -3.00696,20.9913 -9.02102,26.88971 -5.8984,5.78275 -14.8039,8.67431 -26.71635,8.67431 h -15.61324 z"
         style="font-style:normal;font-variant:normal;font-weight:900;font-stretch:normal;font-size:192px;line-height:1.25;font-family:Nunito;-inkscape-font-specification:'Nunito Heavy';letter-spacing:0px;word-spacing:0px;fill:#ffffff;fill-opacity:1;stroke:none;stroke-width:0.9035542;filter:url(#filter4933-6)"
         inkscape:connector-curvature="0" />
    </g>
    <rect
       ry="105.83334"
       y="85.333313"
       x="-3.7771806e-005"
       height="211.66667"
       width="211.66667"
       id="rect5229"
       style="fill:url(#linearGradient4613);fill-opacity:1;fill-rule:evenodd;stroke:none;stroke-width:0.51866168;stroke-linecap:round;stroke-linejoin:round;stroke-miterlimit:4;stroke-dasharray:none;stroke-opacity:1" />
    <path
       sodipodi:nodetypes="ccccsscsssscccscscscc"
       id="path5231"
       d="m 704.31028,233.37046 h 74.42908 c 0.7826,-0.34969 1.55462,-0.71216 2.31324,-1.09146 9.83066,-4.85751 17.29037,-11.85489 22.37919,-20.99164 5.20447,-9.25239 7.80681,-20.23945 7.80681,-32.9615 0,-12.60639 -2.60234,-23.47805 -7.80681,-32.61479 -5.20447,-9.13674 -12.72187,-16.13375 -22.55255,-20.99126 -9.71501,-4.97316 -21.33823,-7.45973 -34.86986,-7.45973 h -35.04326 c -4.74184,0 -8.38497,1.27232 -10.92938,3.81673 -2.5444,2.5444 -3.81632,6.18752 -3.81673,10.92938 l -0.008,93.266 c 0,5.39951 2.7,8.09827 8.09827,8.09827 z m 23.83075,-90.43489 h 15.61324 c 11.91245,0 20.81795,2.89119 26.71635,8.67394 6.01406,5.78275 9.02102,14.68824 9.02102,26.71635 0,12.02812 -3.00696,20.9913 -9.02102,26.88971 -5.8984,5.78275 -14.8039,8.67431 -26.71635,8.67431 h -15.61324 z"
       style="font-style:normal;font-variant:normal;font-weight:900;font-stretch:normal;font-size:192px;line-height:1.25;font-family:Nunito;-inkscape-font-specification:'Nunito Heavy';letter-spacing:0px;word-spacing:0px;fill:#ffffff;fill-opacity:1;stroke:none;stroke-width:0.9035542;filter:url(#filter4933-6)"
       inkscape:connector-curvature="0"
       transform="matrix(0.98014806,0,0,0.98014806,-628.00185,18.93435)" />
    <rect
       style="fill:url(#radialGradient4789);fill-opacity:1;fill-rule:evenodd;stroke:none;stroke-width:0.52916664;stroke-linecap:round;stroke-linejoin:round;stroke-miterlimit:4;stroke-dasharray:none;stroke-opacity:1"
       id="rect4785"
       width="215.95377"
       height="215.95377"
       x="-84.457169"
       y="-395.54883"
       ry="107.97688" />
    <path
       inkscape:connector-curvature="0"
       style="font-style:normal;font-variant:normal;font-weight:900;font-stretch:normal;font-size:192px;line-height:1.25;font-family:Nunito;-inkscape-font-specification:'Nunito Heavy';letter-spacing:0px;word-spacing:0px;fill:#ffffff;fill-opacity:1;stroke:none;stroke-width:0.9035542;filter:url(#filter4921)"
       d="m -14.212446,-346.03256 c -4.74184,0 -8.38497,1.27232 -10.92938,3.81673 -2.5444,2.5444 -3.81673,6.18752 -3.81673,10.92938 v 92.81308 c 0,3.42313 0.66359,6.27323 1.98957,8.55119 h 80.53011 c 0.7826,-0.34969 1.55462,-0.71216 2.31324,-1.09146 9.83066,-4.85751 17.29037,-11.85489 22.379186,-20.99163 5.20447,-9.2524 7.80681,-20.23946 7.80681,-32.96151 0,-12.60639 -2.60234,-23.47805 -7.80681,-32.61479 -5.204466,-9.13674 -12.721866,-16.13375 -22.552546,-20.99126 -9.71501,-4.97316 -21.33823,-7.45973 -34.86986,-7.45973 z m 17.1749099,25.67549 H 18.575704 c 11.91245,0 20.81795,2.89119 26.71635,8.67394 6.01406,5.78275 9.02102,14.68824 9.02102,26.71635 0,12.02812 -3.00696,20.99131 -9.02102,26.88971 -5.8984,5.78275 -14.8039,8.67432 -26.71635,8.67432 H 2.9624639 Z"
       id="path4787" />
    <rect
       ry="107.97688"
       y="-395.54883"
       x="-323.93066"
       height="215.95377"
       width="215.95377"
       id="rect4791"
       style="fill:url(#radialGradient4795);fill-opacity:1;fill-rule:evenodd;stroke:none;stroke-width:0.52916664;stroke-linecap:round;stroke-linejoin:round;stroke-miterlimit:4;stroke-dasharray:none;stroke-opacity:1" />
    <path
       id="path4793"
       d="m -253.68594,-346.03256 c -4.74184,0 -8.38497,1.27232 -10.92938,3.81673 -2.5444,2.5444 -3.81673,6.18752 -3.81673,10.92938 v 92.81308 c 0,3.42313 0.66359,6.27323 1.98957,8.55119 h 80.53011 c 0.7826,-0.34969 1.55462,-0.71216 2.31324,-1.09146 9.83066,-4.85751 17.29037,-11.85489 22.37919,-20.99163 5.20447,-9.2524 7.80681,-20.23946 7.80681,-32.96151 0,-12.60639 -2.60234,-23.47805 -7.80681,-32.61479 -5.20447,-9.13674 -12.72187,-16.13375 -22.55255,-20.99126 -9.71501,-4.97316 -21.33823,-7.45973 -34.86986,-7.45973 z m 17.17491,25.67549 h 15.61324 c 11.91245,0 20.81795,2.89119 26.71635,8.67394 6.01406,5.78275 9.02102,14.68824 9.02102,26.71635 0,12.02812 -3.00696,20.99131 -9.02102,26.88971 -5.8984,5.78275 -14.8039,8.67432 -26.71635,8.67432 h -15.61324 z"
       style="font-style:normal;font-variant:normal;font-weight:900;font-stretch:normal;font-size:192px;line-height:1.25;font-family:Nunito;-inkscape-font-specification:'Nunito Heavy';letter-spacing:0px;word-spacing:0px;fill:#ffffff;fill-opacity:1;stroke:none;stroke-width:0.9035542;filter:url(#filter4909)"
       inkscape:connector-curvature="0" />
    <rect
       style="fill:url(#radialGradient4801);fill-opacity:1;fill-rule:evenodd;stroke:none;stroke-width:0.52916664;stroke-linecap:round;stroke-linejoin:round;stroke-miterlimit:4;stroke-dasharray:none;stroke-opacity:1"
       id="rect4797"
       width="215.95377"
       height="215.95377"
       x="-562.33502"
       y="-395.54883"
       ry="107.97688" />
    <path
       inkscape:connector-curvature="0"
       style="font-style:normal;font-variant:normal;font-weight:900;font-stretch:normal;font-size:192px;line-height:1.25;font-family:Nunito;-inkscape-font-specification:'Nunito Heavy';letter-spacing:0px;word-spacing:0px;fill:#ffffff;fill-opacity:1;stroke:none;stroke-width:0.9035542;filter:url(#filter4861)"
       d="m -492.09035,-346.03256 c -4.74184,0 -8.38497,1.27232 -10.92938,3.81673 -2.5444,2.5444 -3.81673,6.18752 -3.81673,10.92938 v 92.81308 c 0,3.42313 0.66359,6.27323 1.98957,8.55119 h 80.53011 c 0.7826,-0.34969 1.55462,-0.71216 2.31324,-1.09146 9.83066,-4.85751 17.29037,-11.85489 22.37919,-20.99163 5.20447,-9.2524 7.80681,-20.23946 7.80681,-32.96151 0,-12.60639 -2.60234,-23.47805 -7.80681,-32.61479 -5.20447,-9.13674 -12.72187,-16.13375 -22.55255,-20.99126 -9.71501,-4.97316 -21.33823,-7.45973 -34.86986,-7.45973 z m 17.17491,25.67549 h 15.61324 c 11.91245,0 20.81795,2.89119 26.71635,8.67394 6.01406,5.78275 9.02102,14.68824 9.02102,26.71635 0,12.02812 -3.00696,20.99131 -9.02102,26.88971 -5.8984,5.78275 -14.8039,8.67432 -26.71635,8.67432 h -15.61324 z"
       id="path4799" />
    <rect
       ry="107.97688"
       y="-395.54883"
       x="395.55896"
       height="215.95377"
       width="215.95377"
       id="rect4803"
       style="fill:url(#radialGradient4807);fill-opacity:1;fill-rule:evenodd;stroke:none;stroke-width:0.52916664;stroke-linecap:round;stroke-linejoin:round;stroke-miterlimit:4;stroke-dasharray:none;stroke-opacity:1" />
    <path
       id="path4805"
       d="m 465.80363,-346.03256 c -4.74184,0 -8.38497,1.27232 -10.92938,3.81673 -2.5444,2.5444 -3.81673,6.18752 -3.81673,10.92938 v 92.81308 c 0,3.42313 0.66359,6.27323 1.98957,8.55119 h 80.53011 c 0.7826,-0.34969 1.55462,-0.71216 2.31324,-1.09146 9.83066,-4.85751 17.29037,-11.85489 22.37919,-20.99163 5.20447,-9.2524 7.80681,-20.23946 7.80681,-32.96151 0,-12.60639 -2.60234,-23.47805 -7.80681,-32.61479 -5.20447,-9.13674 -12.72187,-16.13375 -22.55255,-20.99126 -9.71501,-4.97316 -21.33823,-7.45973 -34.86986,-7.45973 z m 17.17491,25.67549 h 15.61324 c 11.91245,0 20.81795,2.89119 26.71635,8.67394 6.01406,5.78275 9.02102,14.68824 9.02102,26.71635 0,12.02812 -3.00696,20.99131 -9.02102,26.88971 -5.8984,5.78275 -14.8039,8.67432 -26.71635,8.67432 h -15.61324 z"
       style="font-style:normal;font-variant:normal;font-weight:900;font-stretch:normal;font-size:192px;line-height:1.25;font-family:Nunito;-inkscape-font-specification:'Nunito Heavy';letter-spacing:0px;word-spacing:0px;fill:#ffffff;fill-opacity:1;stroke:none;stroke-width:0.9035542;filter:url(#filter4945)"
       inkscape:connector-curvature="0" />
    <rect
       style="fill:url(#radialGradient4813);fill-opacity:1;fill-rule:evenodd;stroke:none;stroke-width:0.52916664;stroke-linecap:round;stroke-linejoin:round;stroke-miterlimit:4;stroke-dasharray:none;stroke-opacity:1"
       id="rect4809"
       width="215.95377"
       height="215.95377"
       x="638.23969"
       y="-395.54883"
       ry="107.97688" />
    <path
       inkscape:connector-curvature="0"
       style="font-style:normal;font-variant:normal;font-weight:900;font-stretch:normal;font-size:192px;line-height:1.25;font-family:Nunito;-inkscape-font-specification:'Nunito Heavy';letter-spacing:0px;word-spacing:0px;fill:#ffffff;fill-opacity:1;stroke:none;stroke-width:0.9035542;filter:url(#filter4957)"
       d="m 708.48436,-346.03256 c -4.74184,0 -8.38497,1.27232 -10.92938,3.81673 -2.5444,2.5444 -3.81673,6.18752 -3.81673,10.92938 v 92.81308 c 0,3.42313 0.66359,6.27323 1.98957,8.55119 h 80.53011 c 0.7826,-0.34969 1.55462,-0.71216 2.31324,-1.09146 9.83066,-4.85751 17.29037,-11.85489 22.37919,-20.99163 5.20447,-9.2524 7.80681,-20.23946 7.80681,-32.96151 0,-12.60639 -2.60234,-23.47805 -7.80681,-32.61479 -5.20447,-9.13674 -12.72187,-16.13375 -22.55255,-20.99126 -9.71501,-4.97316 -21.33823,-7.45973 -34.86986,-7.45973 z m 17.17491,25.67549 h 15.61324 c 11.91245,0 20.81795,2.89119 26.71635,8.67394 6.01406,5.78275 9.02102,14.68824 9.02102,26.71635 0,12.02812 -3.00696,20.99131 -9.02102,26.88971 -5.8984,5.78275 -14.8039,8.67432 -26.71635,8.67432 h -15.61324 z"
       id="path4811" />
    <g
       id="g4557"
       transform="translate(-24.190476,272.46188)">
      <rect
         style="fill:#1a1a1a;fill-opacity:1;fill-rule:evenodd;stroke:none;stroke-width:0.52916664;stroke-linecap:round;stroke-linejoin:round;stroke-miterlimit:4;stroke-dasharray:none;stroke-opacity:1"
         id="rect4551"
         width="198.05954"
         height="111.12498"
         x="119.74279"
         y="334.93622"
         ry="15.425208" />
      <rect
         style="fill:#93a7ac;fill-opacity:1;fill-rule:evenodd;stroke:none;stroke-width:0.52916664;stroke-linecap:round;stroke-linejoin:round;stroke-miterlimit:4;stroke-dasharray:none;stroke-opacity:1"
         id="rect4553"
         width="137.96132"
         height="88.446426"
         x="149.79192"
         y="346.27548" />
    </g>
  </g>
</svg>
